<?xml version="1.0" encoding="UTF-8"?>
<svg version="1.1" xmlns="http://www.w3.org/2000/svg" width="467" height="409">
<path d="M0 0 C1.57599427 -0.00339833 1.57599427 -0.00339833 3.1838268 -0.00686532 C6.68631377 -0.01316929 10.18876167 -0.01237827 13.69125366 -0.0115509 C16.21008351 -0.01454468 18.72891291 -0.01794771 21.2477417 -0.02172852 C27.36968155 -0.02963573 33.49160722 -0.03278226 39.61355169 -0.03334089 C44.59461705 -0.03381731 49.57567926 -0.03587831 54.55674362 -0.03904152 C68.70466927 -0.04784211 82.85258736 -0.05246193 97.00051577 -0.05171105 C97.76213115 -0.05167109 98.52374653 -0.05163113 99.30844116 -0.05158997 C100.45227282 -0.05152864 100.45227282 -0.05152864 101.6192122 -0.05146609 C113.96605173 -0.05105999 126.31286071 -0.06062188 138.65969141 -0.07472833 C151.36252033 -0.089126 164.06533439 -0.09599663 176.76817167 -0.09513456 C183.88964655 -0.09480371 191.01108942 -0.09750111 198.13255692 -0.10831261 C204.83520211 -0.11842366 211.53776881 -0.11804775 218.2404213 -0.11079597 C220.69166666 -0.10975461 223.14291629 -0.11208621 225.59415436 -0.11815643 C256.31257893 -0.18926157 256.31257893 -0.18926157 270.91146851 4.44621277 C271.97869141 4.77649475 271.97869141 4.77649475 273.06747437 5.1134491 C297.8954319 12.96373279 320.12928408 28.87051805 334.22396851 51.13371277 C334.22396851 51.79371277 334.22396851 52.45371277 334.22396851 53.13371277 C335.21396851 53.46371277 336.20396851 53.79371277 337.22396851 54.13371277 C338.31137085 55.72160339 338.31137085 55.72160339 339.30990601 57.78996277 C339.68115601 58.55743835 340.05240601 59.32491394 340.43490601 60.11564636 C341.01111694 61.36208923 341.01111694 61.36208923 341.59896851 62.63371277 C342.19451538 63.90529236 342.19451538 63.90529236 342.80209351 65.20256042 C346.48170171 73.28777796 349.09487274 81.52228078 351.22396851 90.13371277 C351.4037024 90.84995819 351.5834363 91.56620361 351.76861668 92.30415344 C352.39284356 96.18310349 352.37900892 100.02781082 352.38459778 103.94572449 C352.39222951 105.27747963 352.39222951 105.27747963 352.40001541 106.63613892 C352.41571361 109.61189119 352.42425833 112.58761921 352.43270874 115.56340027 C352.44224997 117.69752658 352.45214125 119.83165135 352.46235657 121.96577454 C352.49373278 128.98006864 352.51401834 135.99437452 352.53256226 143.00871277 C352.53585958 144.20445923 352.5391569 145.40020569 352.54255414 146.63218689 C352.57335258 157.92465648 352.60004369 169.21712883 352.61697292 180.5096283 C352.63882817 194.91646337 352.68068386 209.32292334 352.7504105 223.72960854 C352.79784167 233.87772205 352.82193251 244.02573511 352.82916981 254.17395592 C352.83410024 260.22385369 352.84892993 266.27332867 352.88891411 272.32310486 C352.92612872 278.02945654 352.93407712 283.73515013 352.92090797 289.4416008 C352.92096136 291.51946029 352.93102426 293.59735156 352.95265961 295.67509842 C353.23185787 324.03889684 343.84207664 349.42224976 324.22396851 370.13371277 C316.10366775 378.13371277 316.10366775 378.13371277 313.22396851 378.13371277 C313.22396851 378.79371277 313.22396851 379.45371277 313.22396851 380.13371277 C311.4236689 381.4994573 309.55585117 382.77678294 307.66146851 384.00871277 C306.62892944 384.68675964 305.59639038 385.36480652 304.53256226 386.06340027 C298.7883221 389.65778903 292.98507734 392.83996964 286.84896851 395.69621277 C286.24053101 395.98689636 285.63209351 396.27757996 285.00521851 396.57707214 C275.62398286 400.96348672 267.28088542 402.69260795 256.91146851 403.25871277 C254.98814697 403.37654114 254.98814697 403.37654114 253.02597046 403.49674988 C240.7938437 404.21769002 228.54472761 404.54245346 216.29501343 404.79240417 C215.1892395 404.8167025 215.1892395 404.8167025 214.06112671 404.8414917 C212.06559386 404.88454651 210.06995345 404.92253246 208.0743103 404.96012878 C205.3639448 405.08231951 202.86537589 405.30419325 200.19725037 405.67179871 C194.69124794 406.29521814 189.32205627 405.99645074 183.80111694 405.69792175 C173.53584299 405.22804016 163.28872387 405.03507951 153.01400757 405.05192566 C152.30368047 405.05303152 151.59335338 405.05413738 150.86150122 405.05527675 C147.13160973 405.06252437 143.4017519 405.07445605 139.67188263 405.08911324 C134.8538638 405.10791373 130.03585136 405.11713641 125.21780396 405.12503052 C111.53737102 405.14880467 97.85698412 405.18461764 84.17660522 405.22966003 C76.57303557 405.25461103 68.96948374 405.27172486 61.36587882 405.28121942 C57.38107317 405.28655937 53.39636347 405.2954867 49.41159821 405.31460762 C33.09817214 405.39084772 16.80949155 405.23693012 0.51069403 404.48604286 C-1.09454977 404.41284047 -2.70001933 404.34438627 -4.30569601 404.28138936 C-36.87900165 402.9604853 -64.13944544 389.96238859 -86.52603149 366.32121277 C-100.05344678 350.50994815 -108.26345809 332.37655615 -112.77603149 312.13371277 C-112.94371536 311.45422073 -113.11139923 310.7747287 -113.28416443 310.074646 C-116.9237425 288.31316444 -114.89345352 264.63905759 -114.8072226 242.63282132 C-114.79544546 239.60749063 -114.78482318 236.58215774 -114.77448082 233.55682182 C-114.74143175 224.04423939 -114.70358324 214.53169297 -114.65911561 205.01915699 C-114.60826981 194.12039582 -114.57408178 183.22174623 -114.55393487 172.32288605 C-114.53718734 163.83207228 -114.50524089 155.34139718 -114.46208876 146.85067695 C-114.43679752 141.8068045 -114.41768824 136.76310308 -114.41471291 131.71916389 C-114.41152942 126.98024162 -114.38925269 122.24176721 -114.35315704 117.502985 C-114.34316684 115.78027662 -114.33966169 114.05751429 -114.34368706 112.33478165 C-114.40467868 80.00699158 -102.48508882 52.96201905 -79.83462524 30.12980652 C-58.318796 9.14935779 -29.63592447 -0.04743997 0 0 Z " fill="#FEF8F0" transform="translate(114.77603149414063,1.8662872314453125)"/>
<path d="M0 0 C3.19197146 5.74554862 3.15143341 11.36551064 3.16062927 17.81201172 C3.168261 19.14376686 3.168261 19.14376686 3.17604691 20.50242615 C3.1917451 23.47817842 3.20028982 26.45390644 3.20874023 29.4296875 C3.21828147 31.56381381 3.22817275 33.69793858 3.23838806 35.83206177 C3.26976427 42.84635587 3.29004984 49.86066175 3.30859375 56.875 C3.31189107 58.07074646 3.31518839 59.26649292 3.31858563 60.49847412 C3.34938408 71.79094371 3.37607518 83.08341606 3.39300442 94.37591553 C3.41485967 108.78275061 3.45671535 123.18921057 3.52644199 137.59589577 C3.57387317 147.74400928 3.59796401 157.89202234 3.6052013 168.04024315 C3.61013174 174.09014092 3.62496142 180.13961591 3.6649456 186.18939209 C3.70216022 191.89574377 3.71010861 197.60143736 3.69693947 203.30788803 C3.69699286 205.38574753 3.70705575 207.4636388 3.7286911 209.54138565 C4.00788937 237.90518407 -5.38189187 263.28853699 -25 284 C-33.12030075 292 -33.12030075 292 -36 292 C-36 292.66 -36 293.32 -36 294 C-37.80029961 295.36574453 -39.66811733 296.64307017 -41.5625 297.875 C-42.59503906 298.55304688 -43.62757813 299.23109375 -44.69140625 299.9296875 C-50.4356464 303.52407626 -56.23889116 306.70625687 -62.375 309.5625 C-62.9834375 309.85318359 -63.591875 310.14386719 -64.21875 310.44335938 C-73.59998565 314.82977395 -81.94308309 316.55889518 -92.3125 317.125 C-94.23582153 317.24282837 -94.23582153 317.24282837 -96.19799805 317.36303711 C-108.4301248 318.08397725 -120.6792409 318.40874069 -132.92895508 318.65869141 C-134.034729 318.68298973 -134.034729 318.68298973 -135.1628418 318.70777893 C-137.15837464 318.75083374 -139.15401506 318.78881969 -141.1496582 318.82641602 C-143.86002371 318.94860674 -146.35859262 319.17048048 -149.02671814 319.53808594 C-154.53272057 320.16150538 -159.90191224 319.86273797 -165.42285156 319.56420898 C-175.68812551 319.09432739 -185.93524464 318.90136674 -196.20996094 318.91821289 C-196.92028803 318.91931875 -197.63061513 318.92042461 -198.36246729 318.92156398 C-202.09235878 318.9288116 -205.8222166 318.94074328 -209.55208588 318.95540047 C-214.3701047 318.97420097 -219.18811715 318.98342364 -224.00616455 318.99131775 C-237.68659749 319.01509191 -251.36698439 319.05090487 -265.04736328 319.09594727 C-272.65093294 319.12089826 -280.25448476 319.13801209 -287.85808969 319.14750665 C-291.84289533 319.1528466 -295.82760503 319.16177393 -299.8123703 319.18089485 C-316.12579637 319.25713495 -332.41447695 319.10321735 -348.71327448 318.35233009 C-350.31851827 318.2791277 -351.92398783 318.21067351 -353.52966452 318.14767659 C-386.10297016 316.82677253 -413.36341394 303.82867582 -435.75 280.1875 C-441.662431 273.36546423 -448.81514578 264.50565859 -452 256 C-451.67 255.01 -451.34 254.02 -451 253 C-450.67128906 253.65484375 -450.34257812 254.3096875 -450.00390625 254.984375 C-436.73061134 280.45183515 -414.46451864 301.14206627 -387.05659473 310.38570666 C-372.58507275 314.7082693 -355.97947968 313.29720406 -341.07983398 313.29052734 C-338.39395624 313.29652201 -335.70808952 313.30327469 -333.0222168 313.31088257 C-326.52270424 313.32737002 -320.02322798 313.33298637 -313.52369624 313.33410732 C-308.23580942 313.33506299 -302.94793442 313.3391989 -297.66005135 313.34550858 C-282.62371417 313.36308199 -267.58740533 313.37235275 -252.55105781 313.37084763 C-251.74344945 313.37076772 -250.9358411 313.3706878 -250.10375977 313.37060547 C-249.2951512 313.37052371 -248.48654263 313.37044195 -247.65343077 313.37035771 C-234.54145584 313.36954433 -221.42959563 313.38870521 -208.31765389 313.4168822 C-194.81112208 313.44567543 -181.30464614 313.45941919 -167.79808289 313.45769465 C-160.23232254 313.45703331 -152.66668273 313.46241341 -145.10095024 313.48405075 C-138.66311505 313.50234694 -132.22545517 313.50654065 -125.7876051 313.4930319 C-122.51050814 313.48654642 -119.23381292 313.48843991 -115.95673561 313.5037384 C-102.31541367 313.5632661 -90.04906008 313.19860768 -77 309 C-75.27311419 308.55358204 -73.54442597 308.11394585 -71.8125 307.6875 C-66.45757489 306.06011189 -61.71738227 303.28438458 -56.8828125 300.5234375 C-54 299 -54 299 -51.8671875 298.5390625 C-49.16731609 297.75960172 -47.90327625 296.02246381 -46 294 C-44.70256937 293.00095177 -43.38911812 292.02245207 -42.0625 291.0625 C-27.13540773 279.49891372 -17.07734065 265.62011462 -8.625 248.875 C-8.21999268 248.10800781 -7.81498535 247.34101563 -7.39770508 246.55078125 C0.30302116 230.5489386 0.58533493 212.08291293 0.45410156 194.69604492 C0.45296967 192.55504376 0.45361359 190.41404105 0.45587158 188.27304077 C0.45700631 182.53259128 0.43370078 176.79248489 0.40557575 171.05211425 C0.38035239 165.0264044 0.37820376 159.00068431 0.37347412 152.97492981 C0.3611053 141.59640407 0.32836717 130.21803442 0.28807616 118.83957702 C0.24316745 105.87200697 0.22132364 92.90442897 0.20129442 79.93680036 C0.15962835 53.29111414 0.08939634 26.64556587 0 0 Z " fill="#6F6F6E" transform="translate(464,88)"/>
<path d="M0 0 C2 2 2 2 2.23046875 5.625 C2.22647678 7.0833982 2.2117184 8.54179743 2.1875 10 C2.18685547 10.73734375 2.18621094 11.4746875 2.18554688 12.234375 C2.14050904 17.71898191 2.14050904 17.71898191 1 20 C0.34 20 -0.32 20 -1 20 C0.30967919 25.29300399 2.23117677 29.54052757 4.9375 34.25 C9.23599729 42.02028628 12.73786766 49.89963218 12 59 C14.97 59 17.94 59 21 59 C20.67 59.99 20.34 60.98 20 62 C19.34 62 18.68 62 18 62 C18 74.54 18 87.08 18 100 C18.99 100 19.98 100 21 100 C21 100.99 21 101.98 21 103 C15.39 103 9.78 103 4 103 C5 99 5 99 6 98 C6.20014986 96.03400963 6.20014986 96.03400963 6.1875 93.75 C6.20167969 92.98171875 6.21585938 92.2134375 6.23046875 91.421875 C6.12425868 88.95808509 6.12425868 88.95808509 4.99609375 86.72265625 C3.65039388 83.04440995 3.78536576 79.54521985 3.875 75.6875 C3.88402344 74.94693359 3.89304688 74.20636719 3.90234375 73.44335938 C3.92575787 71.62876533 3.96162385 69.81433929 4 68 C3.34 68 2.68 68 2 68 C1.79246094 68.66257812 1.58492187 69.32515625 1.37109375 70.0078125 C-0.84734079 74.84918246 -4.28279279 78.77837697 -7.56835938 82.94140625 C-11.91683929 88.57137408 -14.91495584 93.83870852 -16 101 C-17.65 101 -19.3 101 -21 101 C-21.38281159 95.76824163 -20.21854707 92.62197306 -18 88 C-17.01 88 -16.02 88 -15 88 C-14.9175 86.96875 -14.835 85.9375 -14.75 84.875 C-13.93069843 80.64194188 -12.69622691 78.33063324 -10 75 C-8.515 74.505 -8.515 74.505 -7 74 C-6.92563245 69.3918813 -6.87129606 64.78411486 -6.83520508 60.17553711 C-6.82015378 58.60906893 -6.79970793 57.04264264 -6.77368164 55.47631836 C-6.73713567 53.21978394 -6.72023739 50.96380847 -6.70703125 48.70703125 C-6.69154739 48.01100296 -6.67606354 47.31497467 -6.66011047 46.59785461 C-6.65860451 42.20936244 -7.27953202 39.46884363 -10 36 C-11.051875 35.34 -12.10375 34.68 -13.1875 34 C-14.115625 33.34 -15.04375 32.68 -16 32 C-16.375 29.25 -16.375 29.25 -16 27 C-16.99 27 -17.98 27 -19 27 C-19 27.99 -19 28.98 -19 30 C-20.65 30 -22.3 30 -24 30 C-24 29.34 -24 28.68 -24 28 C-24.66 28 -25.32 28 -26 28 C-26 28.66 -26 29.32 -26 30 C-26.66 30 -27.32 30 -28 30 C-27.5047783 26.33535945 -26.9791794 24.29167646 -24 22 C-23.01 21.67 -22.02 21.34 -21 21 C-19.78130071 18.49552484 -19.78130071 18.49552484 -19 16 C-13.25 15.875 -13.25 15.875 -11 17 C-11 17.66 -11 18.32 -11 19 C-9.35 19 -7.7 19 -6 19 C-5.94558344 17.10448978 -5.90701965 15.2085208 -5.875 13.3125 C-5.85179687 12.25675781 -5.82859375 11.20101562 -5.8046875 10.11328125 C-6.00141271 6.97748141 -6.66942346 4.82354627 -8 2 C-4.77626323 -0.14915785 -3.73296326 -0.38286803 0 0 Z " fill="#BEBC95" transform="translate(228,119)"/>
<path d="M0 0 C1.0209375 0.0009668 1.0209375 0.0009668 2.0625 0.00195312 C7.09338846 0.04669423 7.09338846 0.04669423 9.375 1.1875 C9.375 1.8475 9.375 2.5075 9.375 3.1875 C10.426875 3.5278125 10.426875 3.5278125 11.5 3.875 C17.46697002 6.59905153 20.90299321 10.17180717 23.375 16.1875 C24.23541533 22.76967724 24.73151658 29.92761391 21.25 35.8125 C17.29256457 40.9404445 12.86809936 44.86483161 6.375 46.1875 C-0.05394466 46.60892315 -6.70774201 46.97209199 -12.625 44.1875 C-18.01660497 39.39241303 -22.78838411 33.17269572 -24.00390625 25.9296875 C-24.30695141 20.16205375 -22.74502256 16.95929921 -19.625 12.1875 C-19.33625 11.32125 -19.0475 10.455 -18.75 9.5625 C-15.06381012 1.78054358 -7.81832706 -0.14228756 0 0 Z " fill="#BDBB92" transform="translate(329.625,175.8125)"/>
<path d="M0 0 C0 0.66 0 1.32 0 2 C0.556875 2.20625 1.11375 2.4125 1.6875 2.625 C5.22268884 4.72700417 8.19991114 7.8121027 9.6328125 11.73046875 C10.15817597 14.97766212 10.17120704 18.14958106 10.1875 21.4375 C10.20167969 22.73558594 10.21585938 24.03367188 10.23046875 25.37109375 C10.01557702 28.75472799 9.47166218 30.98105663 8 34 C7.34 34 6.68 34 6 34 C5.75121094 34.59296875 5.50242188 35.1859375 5.24609375 35.796875 C2.92812621 39.89509974 -0.79111706 42.06989096 -5 44 C-10.36136469 44.99229678 -14.51705638 44.76893373 -19.375 42.25 C-20.24125 41.5075 -21.1075 40.765 -22 40 C-22.886875 39.443125 -23.77375 38.88625 -24.6875 38.3125 C-29.65308037 33.34691963 -30.19519334 27.16856477 -30.375 20.375 C-30.19127961 13.52143082 -29.19662651 9.4782453 -24.5625 4.25 C-16.8973847 -2.48034514 -9.73687622 -3.89475049 0 0 Z " fill="#54623E" transform="translate(121,179)"/>
<path d="M0 0 C0.99 0.33 1.98 0.66 3 1 C3 1.99 3 2.98 3 4 C2.34 4 1.68 4 1 4 C1.33 5.98 1.66 7.96 2 10 C2.66 10 3.32 10 4 10 C3.67 8.68 3.34 7.36 3 6 C3.99 6.33 4.98 6.66 6 7 C6.33 8.98 6.66 10.96 7 13 C7.78375 12.938125 8.5675 12.87625 9.375 12.8125 C10.24125 12.874375 11.1075 12.93625 12 13 C12.99 14.485 12.99 14.485 14 16 C15.66014616 16.36442233 17.32706064 16.69972883 19 17 C19.33 17.66 19.66 18.32 20 19 C22.02463255 19.65213292 22.02463255 19.65213292 24 20 C24 20.66 24 21.32 24 22 C23.01 22 22.02 22 21 22 C21.99135641 24.6273026 21.99135641 24.6273026 24 27 C27.62599422 27.41725678 27.62599422 27.41725678 31 27 C31 27.99 31 28.98 31 30 C33.475 25.545 33.475 25.545 36 21 C36.66 21.33 37.32 21.66 38 22 C37.67 22.66 37.34 23.32 37 24 C37.66 24 38.32 24 39 24 C38.41435372 27.95311239 36.80790963 30.19209037 34 33 C26.19322845 38.110789 18.12712961 37.67241044 9.1875 36.5 C2.83596252 33.51104119 -1.49835158 27.38764409 -4.3359375 21.05859375 C-6.33810215 14.85188332 -5.35404986 10.2025181 -2.5 4.4375 C-1.68416898 2.94860839 -0.85678194 1.4657091 0 0 Z " fill="#9FA078" transform="translate(311,185)"/>
<path d="M0 0 C1.31291016 -0.02513672 1.31291016 -0.02513672 2.65234375 -0.05078125 C5.0625 0.3125 5.0625 0.3125 6.81640625 1.51953125 C10.36454875 6.62485228 9.28392705 14.25147062 9.3125 20.1875 C9.333125 21.25097656 9.35375 22.31445312 9.375 23.41015625 C9.40516224 29.48030661 9.14984933 34.01784017 6.0625 39.3125 C2.32994552 41.80086965 0.47809065 41.85476552 -3.9375 41.3125 C-8.50011449 37.36645503 -9.62595099 31.80317313 -10.14428711 25.99560547 C-10.24002227 23.57711143 -10.25965791 21.17027217 -10.25 18.75 C-10.27416992 17.53280273 -10.27416992 17.53280273 -10.29882812 16.29101562 C-10.30320131 10.87263963 -9.47833643 7.11597909 -6.9375 2.3125 C-4.42737037 -0.19762963 -3.46944763 0.01528391 0 0 Z " fill="#FAF5EC" transform="translate(110.9375,179.6875)"/>
<path d="M0 0 C2.16013665 2.75905304 4.02613982 5.62954682 5.85253906 8.61791992 C18.39002753 28.92221887 35.25290446 44.52202811 57.125 54.3125 C58.20612061 54.81946411 58.20612061 54.81946411 59.30908203 55.33666992 C74.98423178 62.02001762 94.05798561 60.30541885 110.71508789 60.31884766 C113.37766706 60.32816174 116.04023305 60.33824761 118.70280457 60.34928894 C124.40196778 60.37140546 130.10111351 60.38651179 135.80031013 60.39665604 C144.04006482 60.41133278 152.2797585 60.43689381 160.51947706 60.46498732 C173.89260712 60.51029332 187.26574604 60.54697448 200.63891602 60.578125 C213.618424 60.60837727 226.59791039 60.64275784 239.57739258 60.68261719 C240.78042634 60.68630951 240.78042634 60.68630951 242.00776381 60.69007643 C246.03186247 60.70245232 250.05596088 60.7149086 254.08005917 60.72740483 C287.38667676 60.83072977 320.69331806 60.92001247 354 61 C354 61.33 354 61.66 354 62 C348.59027813 63.12496717 343.35641698 63.13991758 337.85961914 63.12698364 C336.84095984 63.12854363 335.82230055 63.13010362 334.77277279 63.13171089 C331.36021921 63.13569846 327.94771015 63.13253973 324.53515625 63.12939453 C322.08723932 63.1307497 319.63932259 63.13253028 317.19140625 63.13470459 C311.22913174 63.13879462 305.26687467 63.13819027 299.30460083 63.13529195 C294.44890561 63.13302994 289.59321391 63.13272887 284.73751831 63.13381577 C283.69917903 63.13404561 283.69917903 63.13404561 282.63986319 63.13428011 C281.23323448 63.13459986 279.82660578 63.13492407 278.41997707 63.1352527 C265.22460561 63.13810494 252.02924109 63.13482624 238.83387077 63.12945233 C227.55460826 63.12500035 216.27535607 63.12574741 204.99609375 63.13037109 C191.87147063 63.13574881 178.74685364 63.13781366 165.62222958 63.13475883 C164.2159977 63.13444033 162.80976582 63.13412595 161.40353394 63.13381577 C160.71184374 63.13366149 160.02015355 63.13350721 159.30750304 63.13334826 C154.47568126 63.13249147 149.64386341 63.13392811 144.81204224 63.13629532 C138.27194686 63.13942908 131.73186616 63.13712875 125.19177246 63.13140106 C122.80797355 63.13009298 120.42417299 63.1304338 118.04037476 63.13266373 C106.63306905 63.14233945 95.24066533 63.06135886 83.84155273 62.59738159 C82.94888986 62.56440637 82.05622698 62.53143114 81.13651371 62.49745667 C73.89058949 62.15927292 67.75049017 60.74759873 61 58 C59.85402344 57.56558594 58.70804688 57.13117188 57.52734375 56.68359375 C32.98073367 46.88097579 13.65043635 27.46793985 0.71484375 4.7421875 C0 3 0 3 0 0 Z " fill="#9D9B99" transform="translate(12,341)"/>
<path d="M0 0 C91.41 0.33 182.82 0.66 277 1 C277 1.33 277 1.66 277 2 C265.43102545 2.96223226 253.89204889 3.29935077 242.29077148 3.55224609 C239.94766566 3.60450155 237.60470651 3.66147749 235.26171875 3.71875 C234.21609016 3.73911316 234.21609016 3.73911316 233.14933777 3.7598877 C229.70948256 3.84509679 226.36680579 4.06823865 222.95741272 4.53907776 C217.45713921 5.16265693 212.09240323 4.86243059 206.57714844 4.56420898 C196.31187449 4.09432739 186.06475536 3.90136674 175.79003906 3.91821289 C175.07971197 3.91931875 174.36938487 3.92042461 173.63753271 3.92156398 C169.90764122 3.9288116 166.1777834 3.94074328 162.44791412 3.95540047 C157.6298953 3.97420097 152.81188285 3.98342364 147.99383545 3.99131775 C134.31340251 4.01509191 120.63301561 4.05090487 106.95263672 4.09594727 C99.34906706 4.12089826 91.74551524 4.13801209 84.14191031 4.14750665 C80.15710467 4.1528466 76.17239497 4.16177393 72.1876297 4.18089485 C54.74794083 4.26264024 37.36897923 3.97927799 19.94824219 3.11499023 C19.1120027 3.07598669 18.27576322 3.03698315 17.41418314 2.99679768 C15.05738463 2.88415869 12.70172605 2.75820598 10.34588623 2.62718201 C9.64401672 2.59425533 8.94214721 2.56132865 8.21900892 2.52740419 C4.66237436 2.31077686 3.04252425 2.0283495 0 0 Z " fill="#565656" transform="translate(92,403)"/>
<path d="M0 0 C4.25414623 -0.02465622 8.50825498 -0.04283899 12.76245117 -0.05493164 C14.21070073 -0.05997101 15.65894517 -0.06680253 17.10717773 -0.07543945 C19.18474588 -0.08752247 21.26224697 -0.09323211 23.33984375 -0.09765625 C24.59144287 -0.10289307 25.84304199 -0.10812988 27.13256836 -0.11352539 C30 0 30 0 31 1 C31.07179964 2.51928038 31.08392007 4.04167482 31.0625 5.5625 C31.05347656 6.38878906 31.04445313 7.21507812 31.03515625 8.06640625 C31.02355469 8.70449219 31.01195312 9.34257812 31 10 C30.34 10 29.68 10 29 10 C26 5.61538462 26 5.61538462 26 3 C21.71 3 17.42 3 13 3 C13 8.61 13 14.22 13 20 C15.97 20 18.94 20 22 20 C22.33 18.68 22.66 17.36 23 16 C23.66 16 24.32 16 25 16 C25 19.63 25 23.26 25 27 C24.34 27 23.68 27 23 27 C22.835 26.360625 22.67 25.72125 22.5 25.0625 C22.005 24.381875 21.51 23.70125 21 23 C18.36 22.67 15.72 22.34 13 22 C13 28.6 13 35.2 13 42 C20.0834358 42.0336806 20.0834358 42.0336806 27 41 C29.3603842 38.60415938 30.27337363 36.25498957 31 33 C31.33 33 31.66 33 32 33 C32.02688151 34.64574566 32.04634123 36.29161413 32.0625 37.9375 C32.07410156 38.85402344 32.08570313 39.77054688 32.09765625 40.71484375 C32 43 32 43 31 44 C28.6243148 44.0883967 26.27791326 44.11530305 23.90234375 44.09765625 C22.83905602 44.09553383 22.83905602 44.09553383 21.75428772 44.09336853 C19.48198288 44.08775443 17.20977525 44.07519963 14.9375 44.0625 C13.40039204 44.05748681 11.86328255 44.05292359 10.32617188 44.04882812 C6.55074358 44.03778042 2.77538829 44.02050641 -1 44 C-1 43.34 -1 42.68 -1 42 C0.98 41.505 0.98 41.505 3 41 C3 28.46 3 15.92 3 3 C2.01 2.67 1.02 2.34 0 2 C0 1.34 0 0.68 0 0 Z " fill="#50603A" transform="translate(394,178)"/>
<path d="M0 0 C2.97 0 5.94 0 9 0 C9 0.66 9 1.32 9 2 C8.34 2.33 7.68 2.66 7 3 C6.67 16.53 6.34 30.06 6 44 C4.35 44 2.7 44 1 44 C0.54625 42.948125 0.0925 41.89625 -0.375 40.8125 C-3.35493769 34.82069672 -7.66353612 29.73655848 -11.79882812 24.51708984 C-13.42558974 22.46247669 -15.03267063 20.39390196 -16.625 18.3125 C-17.09164063 17.71050781 -17.55828125 17.10851562 -18.0390625 16.48828125 C-19 15 -19 15 -19 13 C-19.66 13 -20.32 13 -21 13 C-21.33 22.24 -21.66 31.48 -22 41 C-20.68 41.33 -19.36 41.66 -18 42 C-18 42.66 -18 43.32 -18 44 C-21.3 44 -24.6 44 -28 44 C-27.67 43.01 -27.34 42.02 -27 41 C-26.01 41 -25.02 41 -24 41 C-24.06900821 36.10651751 -24.15703744 31.21387883 -24.26245117 26.32104492 C-24.29563655 24.65772892 -24.32368834 22.99430204 -24.34643555 21.33081055 C-24.38009999 18.93490501 -24.4324194 16.54000965 -24.48828125 14.14453125 C-24.49467117 13.4047554 -24.5010611 12.66497955 -24.50764465 11.90278625 C-24.63364362 7.44474346 -25.34377161 4.60245177 -28 1 C-23.60282075 -0.28350097 -20.3747223 -0.45337997 -16 1 C-11.23985333 5.46362591 -7.87524805 11.24552167 -4.43017578 16.73876953 C-1.01438181 22.70613522 -1.01438181 22.70613522 4 27 C3.9192124 23.39490895 3.80636316 19.79152079 3.6875 16.1875 C3.66494141 15.16333984 3.64238281 14.13917969 3.61914062 13.08398438 C3.5659668 11.60961914 3.5659668 11.60961914 3.51171875 10.10546875 C3.48553467 9.19949951 3.45935059 8.29353027 3.43237305 7.36010742 C2.92483536 4.58971397 2.05644607 3.82935807 0 2 C0 1.34 0 0.68 0 0 Z " fill="#54633F" transform="translate(281,178)"/>
<path d="M0 0 C4.25414623 -0.02465622 8.50825498 -0.04283899 12.76245117 -0.05493164 C14.21070073 -0.05997101 15.65894517 -0.06680253 17.10717773 -0.07543945 C19.18474588 -0.08752247 21.26224697 -0.09323211 23.33984375 -0.09765625 C24.59144287 -0.10289307 25.84304199 -0.10812988 27.13256836 -0.11352539 C30 0 30 0 31 1 C31.07179964 2.51928038 31.08392007 4.04167482 31.0625 5.5625 C31.05347656 6.38878906 31.04445312 7.21507812 31.03515625 8.06640625 C31.02355469 8.70449219 31.01195312 9.34257812 31 10 C30.34 10 29.68 10 29 10 C26.95830515 7.09451118 26 5.59857954 26 2 C21.71 2 17.42 2 13 2 C13 7.94 13 13.88 13 20 C15.97 20 18.94 20 22 20 C22.33 18.68 22.66 17.36 23 16 C23.66 16 24.32 16 25 16 C25 19.3 25 22.6 25 26 C24.34 26 23.68 26 23 26 C22.34 25.01 21.68 24.02 21 23 C18.36 22.67 15.72 22.34 13 22 C13 28.6 13 35.2 13 42 C17.62 41.67 22.24 41.34 27 41 C27.99 38.69 28.98 36.38 30 34 C30.66 34 31.32 34 32 34 C32 37.3 32 40.6 32 44 C21.44 44 10.88 44 0 44 C0.33 43.01 0.66 42.02 1 41 C1.66 41 2.32 41 3 41 C2.67 28.46 2.34 15.92 2 3 C1.34 2.67 0.68 2.34 0 2 C0 1.34 0 0.68 0 0 Z " fill="#4C5C36" transform="translate(169,178)"/>
<path d="M0 0 C3.82965848 -0.6335832 7.18567176 -0.80328237 11 0 C14.41801124 2.81941032 16.59645989 6.30867357 19 10 C20.40967545 11.92181442 21.82626557 13.83857754 23.25 15.75 C25.92622155 19.44362809 28.4858314 23.19537317 31 27 C31.05827558 23.4375692 31.09368885 19.87526181 31.125 16.3125 C31.14175781 15.30509766 31.15851563 14.29769531 31.17578125 13.25976562 C31.18222656 12.28330078 31.18867188 11.30683594 31.1953125 10.30078125 C31.20578613 9.40528564 31.21625977 8.50979004 31.22705078 7.5871582 C30.97703456 4.73831743 30.18016512 2.59105457 29 0 C31.64 0 34.28 0 37 0 C37 0.99 37 1.98 37 3 C36.01 3 35.02 3 34 3 C34 16.2 34 29.4 34 43 C28.37594627 41.87518925 28.37594627 41.87518925 25.94921875 38.3515625 C25.41901123 37.59810547 24.88880371 36.84464844 24.3425293 36.06835938 C23.79636963 35.26205078 23.25020996 34.45574219 22.6875 33.625 C21.54194886 31.98157409 20.39611588 30.33834461 19.25 28.6953125 C18.69699219 27.89254883 18.14398438 27.08978516 17.57421875 26.26269531 C14.90685879 22.42877905 12.09139477 18.70767796 9.29296875 14.96875 C8 13 8 13 8 11 C7.34 11 6.68 11 6 11 C6.11815307 15.23603463 6.24239432 19.47183326 6.37231445 23.70751953 C6.41566231 25.1488762 6.45733752 26.59028418 6.49731445 28.03173828 C6.55502088 30.10204541 6.61871371 32.17209432 6.68359375 34.2421875 C6.72025146 35.4885498 6.75690918 36.73491211 6.79467773 38.01904297 C6.80289479 40.92636942 6.80289479 40.92636942 8 43 C6.02 43 4.04 43 2 43 C2.33 42.34 2.66 41.68 3 41 C3.12318691 38.33636302 3.18837395 35.69986966 3.203125 33.03515625 C3.20882507 32.24604355 3.21452515 31.45693085 3.22039795 30.64390564 C3.22984925 28.97363629 3.23638245 27.30334829 3.24023438 25.63305664 C3.24994869 23.07600488 3.28097332 20.51975395 3.3125 17.96289062 C3.31902922 16.34115061 3.32428001 14.71940485 3.328125 13.09765625 C3.3404718 12.33195816 3.3528186 11.56626007 3.36553955 10.77735901 C3.41730978 6.63433514 3.41730978 6.63433514 1.47949219 3.11889648 C0.99125977 2.74966064 0.50302734 2.3804248 0 2 C0 1.34 0 0.68 0 0 Z " fill="#53623E" transform="translate(352,178)"/>
<path d="M0 0 C4.62 0 9.24 0 14 0 C13.67 0.66 13.34 1.32 13 2 C12.91308999 4.84429357 12.88446198 7.66379176 12.90234375 10.5078125 C12.90446617 11.76874222 12.90446617 11.76874222 12.90663147 13.05514526 C12.91223763 15.74513275 12.92479114 18.43503759 12.9375 21.125 C12.94251421 22.94661338 12.94707725 24.76822807 12.95117188 26.58984375 C12.96220906 31.05992777 12.9794778 35.52994986 13 40 C16.96 40.33 20.92 40.66 25 41 C25.66 39.35 26.32 37.7 27 36 C28.5625 33.1875 28.5625 33.1875 30 31 C30.33 31 30.66 31 31 31 C31.02687279 32.81242052 31.04633715 34.62495233 31.0625 36.4375 C31.07410156 37.44683594 31.08570313 38.45617187 31.09765625 39.49609375 C31 42 31 42 30 43 C27.70848583 43.08790975 25.41427476 43.10694038 23.12109375 43.09765625 C22.09110008 43.09553383 22.09110008 43.09553383 21.04029846 43.09336853 C18.83932199 43.08775479 16.63844591 43.07520007 14.4375 43.0625 C12.94856917 43.05748676 11.45963676 43.05292355 9.97070312 43.04882812 C6.31376925 43.03778093 2.65689442 43.02050713 -1 43 C-1 42.34 -1 41.68 -1 41 C-0.01 40.505 -0.01 40.505 1 40 C1.02467759 34.62484067 1.04284928 29.24971415 1.05493164 23.87451172 C1.05996737 22.04507879 1.06679627 20.21564991 1.07543945 18.38623047 C1.08753824 15.76008102 1.09323583 13.13398468 1.09765625 10.5078125 C1.10281754 9.68693146 1.10797882 8.86605042 1.11329651 8.02029419 C1.22351874 3.87788156 1.22351874 3.87788156 0 0 Z " fill="#4B5B34" transform="translate(135,179)"/>
<path d="M0 0 C3.18408436 5.73135185 3.14449227 11.30632024 3.12698364 17.73658752 C3.12932363 19.05570795 3.12932363 19.05570795 3.13171089 20.40147728 C3.13569909 23.34782807 3.13253967 26.29412734 3.12939453 29.24047852 C3.13074953 31.35292593 3.13253001 33.4653731 3.13470459 35.57781982 C3.13926693 41.31521853 3.13749434 47.05259927 3.1343255 52.78999829 C3.13179607 58.78992591 3.13414104 64.78985198 3.13571167 70.78977966 C3.13753151 80.86498288 3.13513175 90.94017876 3.13037109 101.01538086 C3.12492736 112.67096753 3.12669269 124.32653671 3.1321975 135.98212296 C3.13673213 145.98305428 3.1373775 155.98398032 3.13475883 165.98491234 C3.13319818 171.96087203 3.13299654 177.9368235 3.13629532 183.91278267 C3.13917915 189.52943874 3.13718886 195.14607221 3.13140106 200.76272583 C3.13007629 202.82673543 3.13046281 204.89074693 3.13266373 206.95475578 C3.13538622 209.76666177 3.13198053 212.57849481 3.12698364 215.39039612 C3.12921436 216.21188804 3.13144509 217.03337996 3.13374341 217.87976557 C3.11010117 224.71392958 3.11010117 224.71392958 2 228 C-0.0625 229.25 -0.0625 229.25 -2 230 C-1.85851011 228.3954444 -1.71164314 226.79136233 -1.5625 225.1875 C-1.48128906 224.29417969 -1.40007812 223.40085937 -1.31640625 222.48046875 C-1 220 -1 220 0 217 C0.09411665 214.12549985 0.13027481 211.27556458 0.12025452 208.40107727 C0.12110894 207.51238313 0.12196337 206.623689 0.12284368 205.70806473 C0.12449595 202.71852355 0.11898122 199.729038 0.11352539 196.73950195 C0.11324344 194.60115561 0.11340141 192.46280917 0.1139679 190.32446289 C0.11425556 184.50870188 0.10836386 178.69296137 0.10139394 172.87720513 C0.09515521 166.80332559 0.09455619 160.72944561 0.09336853 154.65556335 C0.09025675 143.14901094 0.08204542 131.64246799 0.07201904 120.13591975 C0.06085315 107.03815626 0.05534625 93.94039232 0.05032361 80.84262526 C0.03986269 53.89507825 0.0222662 26.94753966 0 0 Z " fill="#818181" transform="translate(464,88)"/>
<path d="M0 0 C4.29 0 8.58 0 13 0 C12.67 0.66 12.34 1.32 12 2 C11.91294854 4.98970289 11.88449855 7.95584955 11.90234375 10.9453125 C11.90446617 12.27283035 11.90446617 12.27283035 11.90663147 13.62716675 C11.9122386 16.45981191 11.92479229 19.29237864 11.9375 22.125 C11.94251408 24.04296761 11.94707715 25.96093646 11.95117188 27.87890625 C11.96221034 32.58596782 11.97947975 37.2929706 12 42 C7.71 42 3.42 42 -1 42 C-0.34 41.01 0.32 40.02 1 39 C1.24097687 36.17562556 1.3729132 33.44122826 1.4140625 30.61328125 C1.43342865 29.79627243 1.4527948 28.97926361 1.4727478 28.13749695 C1.53250352 25.52927066 1.57891258 22.92100014 1.625 20.3125 C1.6631835 18.5436006 1.70223546 16.77471972 1.7421875 15.00585938 C1.83820168 10.67072341 1.92224735 6.3355004 2 2 C1.34 2 0.68 2 0 2 C0 1.34 0 0.68 0 0 Z " fill="#4B5B35" transform="translate(48,179)"/>
<path d="M0 0 C4.29 0 8.58 0 13 0 C12.67 0.99 12.34 1.98 12 3 C11.89113252 5.69625417 11.83596647 8.3658955 11.83203125 11.0625 C11.82870285 11.85019775 11.82537445 12.63789551 11.82194519 13.44946289 C11.81688593 15.1137636 11.81453656 16.77807443 11.81469727 18.44238281 C11.81250824 20.99040361 11.79433536 23.53799315 11.77539062 26.0859375 C11.77245702 27.70312352 11.770472 29.32031159 11.76953125 30.9375 C11.76234573 31.70006104 11.75516022 32.46262207 11.74775696 33.24829102 C11.76417598 37.04181111 11.84309715 38.76464573 14 42 C9.71 42 5.42 42 1 42 C1.00523682 40.79875488 1.01047363 39.59750977 1.01586914 38.35986328 C1.03393653 33.91325624 1.0454384 29.46665247 1.05493164 25.02001953 C1.05996787 23.09358169 1.06679712 21.16714769 1.07543945 19.24072266 C1.08753608 16.47557632 1.09323533 13.71048042 1.09765625 10.9453125 C1.10281754 10.0806839 1.10797882 9.2160553 1.11329651 8.32522583 C1.24383889 4.02748998 1.24383889 4.02748998 0 0 Z " fill="#4E5D38" transform="translate(73,179)"/>
<path d="M0 0 C0.78375 0.04125 1.5675 0.0825 2.375 0.125 C1.941875 0.929375 1.941875 0.929375 1.5 1.75 C-1.36389988 7.79601085 -1.9371313 12.91408212 -1.875 19.5 C-1.88273437 20.31210938 -1.89046875 21.12421875 -1.8984375 21.9609375 C-1.8811401 27.3577261 -1.02853226 31.92301932 0.375 37.125 C0.375 38.445 0.375 39.765 0.375 41.125 C-4.62183952 39.84673873 -7.39098917 38.16751354 -10.625 34.125 C-13.69855824 27.09972403 -14.21674327 17.32576666 -11.4375 10.125 C-9.49911829 6.91664407 -7.40859463 4.62309775 -4.625 2.125 C-2.625 0.125 -2.625 0.125 0 0 Z " fill="#515F3B" transform="translate(103.625,178.875)"/>
<path d="M0 0 C2.31 0 4.62 0 7 0 C6.99476318 1.20124512 6.98952637 2.40249023 6.98413086 3.64013672 C6.96606347 8.08674376 6.9545616 12.53334753 6.94506836 16.97998047 C6.94003213 18.90641831 6.93320288 20.83285231 6.92456055 22.75927734 C6.91246392 25.52442368 6.90676467 28.28951958 6.90234375 31.0546875 C6.89718246 31.9193161 6.89202118 32.7839447 6.88670349 33.67477417 C6.75616111 37.97251002 6.75616111 37.97251002 8 42 C5.03 42 2.06 42 -1 42 C-1.19371858 37.30481298 -1.3721928 32.609373 -1.53710938 27.91308594 C-1.59518708 26.31853041 -1.65728855 24.72411579 -1.72363281 23.12988281 C-1.81876902 20.82643335 -1.89899125 18.52285014 -1.9765625 16.21875 C-2.00875885 15.51633179 -2.0409552 14.81391357 -2.0741272 14.09020996 C-2.22348905 9.0544113 -1.39161314 4.84452356 0 0 Z " fill="#606D48" transform="translate(240,179)"/>
<path d="M0 0 C-0.66 1.98 -1.32 3.96 -2 6 C-2.81691315 5.83923477 -3.63382629 5.67846954 -4.47549438 5.51283264 C-8.46168513 4.93282258 -12.37372076 4.82495377 -16.39208984 4.79467773 C-17.62235397 4.77982834 -17.62235397 4.77982834 -18.87747192 4.76467896 C-21.5719317 4.7332458 -24.26640907 4.70837889 -26.9609375 4.68359375 C-28.83566734 4.6630085 -30.7103927 4.64201162 -32.58511353 4.62062073 C-37.50710411 4.56556231 -42.42913545 4.51608178 -47.35119629 4.46777344 C-52.37869878 4.41743955 -57.40614247 4.36181567 -62.43359375 4.30664062 C-72.2890122 4.19925771 -82.14448182 4.09776902 -92 4 C-92 3.01 -92 2.02 -92 1 C-90.45357819 0.9845388 -90.45357819 0.9845388 -88.87591553 0.96876526 C-79.16444733 0.8710469 -69.45304344 0.76831423 -59.74168015 0.66066074 C-54.74887029 0.60547538 -49.75605454 0.55206234 -44.76318359 0.50268555 C-39.94560915 0.45497737 -35.12810545 0.40263215 -30.31061554 0.34705925 C-28.4718222 0.32666496 -26.63300948 0.30794707 -24.79418182 0.29092598 C-22.220464 0.26681723 -19.64687931 0.23677149 -17.07324219 0.20532227 C-15.9306469 0.19668907 -15.9306469 0.19668907 -14.76496887 0.18788147 C-0.06614453 -0.01653613 -0.06614453 -0.01653613 0 0 Z " fill="#EAE6DD" transform="translate(215,233)"/>
<path d="M0 0 C1.32 0 2.64 0 4 0 C4 0.99 4 1.98 4 3 C4.99 3 5.98 3 7 3 C7 3.99 7 4.98 7 6 C9.97 6.495 9.97 6.495 13 7 C13.12375 7.969375 13.2475 8.93875 13.375 9.9375 C13.58125 10.948125 13.7875 11.95875 14 13 C14.66 13.33 15.32 13.66 16 14 C16 14.66 16 15.32 16 16 C15.34 16.33 14.68 16.66 14 17 C15.65 16.67 17.3 16.34 19 16 C18.34 16 17.68 16 17 16 C17 15.01 17 14.02 17 13 C16.34 13 15.68 13 15 13 C15 12.34 15 11.68 15 11 C15.99 11 16.98 11 18 11 C18.33 11.66 18.66 12.32 19 13 C21.52733235 13.65555119 21.52733235 13.65555119 24 14 C24 14.99 24 15.98 24 17 C25.32 17 26.64 17 28 17 C28 17.99 28 18.98 28 20 C28.66 20 29.32 20 30 20 C30 20.66 30 21.32 30 22 C24.96086388 24.51956806 17.61347647 23.21160347 12.1875 22.5 C6.62515978 19.88242813 2.2736201 14.73347676 0 9 C-0.1953125 6.640625 -0.1953125 6.640625 -0.125 4.25 C-0.10695313 3.45078125 -0.08890625 2.6515625 -0.0703125 1.828125 C-0.04710937 1.22484375 -0.02390625 0.6215625 0 0 Z " fill="#50593C" transform="translate(308,199)"/>
<path d="M0 0 C4.25414623 -0.02465622 8.50825498 -0.04283899 12.76245117 -0.05493164 C14.21070073 -0.05997101 15.65894517 -0.06680253 17.10717773 -0.07543945 C19.18474588 -0.08752247 21.26224697 -0.09323211 23.33984375 -0.09765625 C24.59144287 -0.10289307 25.84304199 -0.10812988 27.13256836 -0.11352539 C30 0 30 0 31 1 C31.07179964 2.51928038 31.08392007 4.04167482 31.0625 5.5625 C31.05347656 6.38878906 31.04445312 7.21507812 31.03515625 8.06640625 C31.02355469 8.70449219 31.01195312 9.34257812 31 10 C30.34 10 29.68 10 29 10 C26.95830515 7.09451118 26 5.59857954 26 2 C21.71 2 17.42 2 13 2 C13 7.94 13 13.88 13 20 C15.97 20 18.94 20 22 20 C22.33 18.68 22.66 17.36 23 16 C23.66 16 24.32 16 25 16 C25 19.3 25 22.6 25 26 C24.34 26 23.68 26 23 26 C22.34 25.01 21.68 24.02 21 23 C18.36 22.67 15.72 22.34 13 22 C13 28.6 13 35.2 13 42 C17.62 41.67 22.24 41.34 27 41 C27.99 38.69 28.98 36.38 30 34 C30.66 34 31.32 34 32 34 C32 37.3 32 40.6 32 44 C21.44 44 10.88 44 0 44 C0.33 43.01 0.66 42.02 1 41 C1.66 41 2.32 41 3 41 C3 28.46 3 15.92 3 3 C3.33 3 3.66 3 4 3 C4 15.87 4 28.74 4 42 C6.64 42 9.28 42 12 42 C12 28.47 12 14.94 12 1 C6.06 1.495 6.06 1.495 0 2 C0 1.34 0 0.68 0 0 Z " fill="#90977E" transform="translate(169,178)"/>
<path d="M0 0 C4.25414623 -0.02465622 8.50825498 -0.04283899 12.76245117 -0.05493164 C14.21070073 -0.05997101 15.65894517 -0.06680253 17.10717773 -0.07543945 C19.18474588 -0.08752247 21.26224697 -0.09323211 23.33984375 -0.09765625 C24.59144287 -0.10289307 25.84304199 -0.10812988 27.13256836 -0.11352539 C30 0 30 0 31 1 C31.07179964 2.51928038 31.08392007 4.04167482 31.0625 5.5625 C31.05347656 6.38878906 31.04445313 7.21507812 31.03515625 8.06640625 C31.02355469 8.70449219 31.01195312 9.34257812 31 10 C30.34 10 29.68 10 29 10 C26 5.61538462 26 5.61538462 26 3 C21.71 3 17.42 3 13 3 C13 8.61 13 14.22 13 20 C15.97 20 18.94 20 22 20 C22.33 18.68 22.66 17.36 23 16 C23.66 16 24.32 16 25 16 C25 19.63 25 23.26 25 27 C24.34 27 23.68 27 23 27 C22.835 26.360625 22.67 25.72125 22.5 25.0625 C22.005 24.381875 21.51 23.70125 21 23 C18.36 22.67 15.72 22.34 13 22 C13 28.6 13 35.2 13 42 C20.0834358 42.0336806 20.0834358 42.0336806 27 41 C29.3603842 38.60415938 30.27337363 36.25498957 31 33 C31.33 33 31.66 33 32 33 C32.02688151 34.64574566 32.04634123 36.29161413 32.0625 37.9375 C32.07410156 38.85402344 32.08570313 39.77054688 32.09765625 40.71484375 C32 43 32 43 31 44 C28.6243148 44.0883967 26.27791326 44.11530305 23.90234375 44.09765625 C22.83905602 44.09553383 22.83905602 44.09553383 21.75428772 44.09336853 C19.48198288 44.08775443 17.20977525 44.07519963 14.9375 44.0625 C13.40039204 44.05748681 11.86328255 44.05292359 10.32617188 44.04882812 C6.55074358 44.03778042 2.77538829 44.02050641 -1 44 C-1 43.34 -1 42.68 -1 42 C0.485 41.505 0.485 41.505 2 41 C2 41.66 2 42.32 2 43 C5.3 43 8.6 43 12 43 C12 29.14 12 15.28 12 1 C6.06 1.495 6.06 1.495 0 2 C0 1.34 0 0.68 0 0 Z " fill="#A3A891" transform="translate(394,178)"/>
<path d="M0 0 C0.66 0.33 1.32 0.66 2 1 C1.10698344 2.06486855 0.2104053 3.12675041 -0.6875 4.1875 C-1.18636719 4.77917969 -1.68523437 5.37085938 -2.19921875 5.98046875 C-7.81029654 12.27315252 -13.55811268 15.72099433 -21.15332031 19.15673828 C-22.83391776 19.92416076 -24.492688 20.73893612 -26.1484375 21.55859375 C-37.61173191 26.55432576 -49.73603527 25.46946861 -62 25 C-62 24.67 -62 24.34 -62 24 C-60.75347656 23.76925781 -59.50695312 23.53851563 -58.22265625 23.30078125 C-42.86537435 20.39141181 -28.22367135 17.45568351 -14.63671875 9.453125 C-12.32317838 8.1781072 -10.53012182 7.59203733 -8 7 C-6.62437146 5.71034824 -5.29233607 4.37310707 -4 3 C-2.68441297 1.97676564 -1.35622245 0.96873032 0 0 Z " fill="#646362" transform="translate(422,379)"/>
<path d="M0 0 C5.28 0 10.56 0 16 0 C15.67 6.27 15.34 12.54 15 19 C19.29 19 23.58 19 28 19 C28 13.72 28 8.44 28 3 C28.33 3 28.66 3 29 3 C29 15.54 29 28.08 29 41 C28.67 41 28.34 41 28 41 C28 35.06 28 29.12 28 23 C23.71 23 19.42 23 15 23 C15.33 29.93 15.66 36.86 16 44 C10.72 44 5.44 44 0 44 C0.33 43.34 0.66 42.68 1 42 C5.29 42.33 9.58 42.66 14 43 C13.505 41.515 13.505 41.515 13 40 C12.9029003 37.20755924 12.860039 34.44079732 12.8671875 31.6484375 C12.86623077 30.83380035 12.86527405 30.01916321 12.86428833 29.17984009 C12.86360834 27.46006188 12.86545002 25.74028108 12.86962891 24.02050781 C12.87499351 21.37819717 12.86967075 18.73605545 12.86328125 16.09375 C12.86394179 14.42447879 12.86522246 12.75520768 12.8671875 11.0859375 C12.86516327 10.29118011 12.86313904 9.49642273 12.86105347 8.67758179 C12.88503986 3.11496014 12.88503986 3.11496014 14 2 C9.38 2 4.76 2 0 2 C0 1.34 0 0.68 0 0 Z " fill="#C6C8B5" transform="translate(46,178)"/>
<path d="M0 0 C4.62 0 9.24 0 14 0 C13.34 0.66 12.68 1.32 12 2 C9.03 1.67 6.06 1.34 3 1 C3 14.2 3 27.4 3 41 C5.64 41 8.28 41 11 41 C11 28.46 11 15.92 11 3 C11.33 3 11.66 3 12 3 C12.33 15.21 12.66 27.42 13 40 C16.96 40.33 20.92 40.66 25 41 C25.66 39.35 26.32 37.7 27 36 C28.5625 33.1875 28.5625 33.1875 30 31 C30.33 31 30.66 31 31 31 C31.02687279 32.81242052 31.04633715 34.62495233 31.0625 36.4375 C31.07410156 37.44683594 31.08570313 38.45617187 31.09765625 39.49609375 C31 42 31 42 30 43 C27.70848583 43.08790975 25.41427476 43.10694038 23.12109375 43.09765625 C22.09110008 43.09553383 22.09110008 43.09553383 21.04029846 43.09336853 C18.83932199 43.08775479 16.63844591 43.07520007 14.4375 43.0625 C12.94856917 43.05748676 11.45963676 43.05292355 9.97070312 43.04882812 C6.31376925 43.03778093 2.65689442 43.02050713 -1 43 C-1 42.34 -1 41.68 -1 41 C-0.01 40.505 -0.01 40.505 1 40 C1.02467759 34.62484067 1.04284928 29.24971415 1.05493164 23.87451172 C1.05996737 22.04507879 1.06679627 20.21564991 1.07543945 18.38623047 C1.08753824 15.76008102 1.09323583 13.13398468 1.09765625 10.5078125 C1.10281754 9.68693146 1.10797882 8.86605042 1.11329651 8.02029419 C1.22351874 3.87788156 1.22351874 3.87788156 0 0 Z " fill="#767E64" transform="translate(135,179)"/>
<path d="M0 0 C1.98 0 3.96 0 6 0 C6 0.99 6 1.98 6 3 C6.66 2.67 7.32 2.34 8 2 C7.67 1.34 7.34 0.68 7 0 C8.98 0 10.96 0 13 0 C12.01 0.33 11.02 0.66 10 1 C10.99135641 3.6273026 10.99135641 3.6273026 13 6 C16.62599422 6.41725678 16.62599422 6.41725678 20 6 C20 6.99 20 7.98 20 9 C21.65 6.03 23.3 3.06 25 0 C25.66 0.33 26.32 0.66 27 1 C26.67 1.66 26.34 2.32 26 3 C26.66 3 27.32 3 28 3 C27.41909101 6.92113569 25.74317959 9.18463148 23 12 C20.70404527 13.24158925 18.46400862 14.09968916 16 15 C16 14.34 16 13.68 16 13 C15.34 13 14.68 13 14 13 C14 12.01 14 11.02 14 10 C12.68 10 11.36 10 10 10 C10 9.01 10 8.02 10 7 C8.35 7 6.7 7 5 7 C4.67 6.01 4.34 5.02 4 4 C3.01 4 2.02 4 1 4 C1 4.66 1 5.32 1 6 C1.66 6 2.32 6 3 6 C3 6.99 3 7.98 3 9 C3.66 9 4.32 9 5 9 C4.67 9.99 4.34 10.98 4 12 C4 11.34 4 10.68 4 10 C2.68 10.33 1.36 10.66 0 11 C0 10.01 0 9.02 0 8 C0.66 8.33 1.32 8.66 2 9 C2 8.34 2 7.68 2 7 C1.01 6.67 0.02 6.34 -1 6 C-0.67 4.02 -0.34 2.04 0 0 Z " fill="#939670" transform="translate(322,206)"/>
<path d="M0 0 C39.6 0.495 39.6 0.495 80 1 C80 1.66 80 2.32 80 3 C53.6 3.33 27.2 3.66 0 4 C0 2.68 0 1.36 0 0 Z " fill="#E0DED3" transform="translate(249,233)"/>
<path d="M0 0 C-0.66 1.98 -1.32 3.96 -2 6 C-2.825 5.855625 -3.65 5.71125 -4.5 5.5625 C-10.98309871 4.52057342 -17.22282888 3.8723652 -23.79296875 3.79467773 C-24.52565475 3.78477814 -25.25834076 3.77487854 -26.01322937 3.76467896 C-28.40462147 3.73340981 -30.79603336 3.70844533 -33.1875 3.68359375 C-34.85758951 3.66299424 -36.52767416 3.64199704 -38.19775391 3.62062073 C-42.57061804 3.56570929 -46.94352679 3.51616503 -51.31646729 3.46777344 C-55.78784098 3.41733103 -60.25915075 3.36176426 -64.73046875 3.30664062 C-73.48692494 3.19943797 -82.243435 3.0979106 -91 3 C-91 2.67 -91 2.34 -91 2 C-89.67147758 1.98786972 -89.67147758 1.98786972 -88.31611633 1.97549438 C-79.91712946 1.89713967 -71.51829405 1.80973027 -63.11950397 1.71247292 C-58.80292709 1.66279798 -54.48637133 1.61646865 -50.16967773 1.578125 C-45.99389681 1.54090425 -41.81830623 1.4944517 -37.64269066 1.44193649 C-36.05975922 1.42358578 -34.47678728 1.40840885 -32.89379311 1.39665604 C-24.36135344 1.33111637 -16.13710308 0.96421654 -7.72599792 -0.67471313 C-4.87658458 -1.01472687 -2.7620426 -0.71835267 0 0 Z " fill="#DBD7CE" transform="translate(215,233)"/>
<path d="M0 0 C4.25414623 -0.02465622 8.50825498 -0.04283899 12.76245117 -0.05493164 C14.21070073 -0.05997101 15.65894517 -0.06680253 17.10717773 -0.07543945 C19.18474588 -0.08752247 21.26224697 -0.09323211 23.33984375 -0.09765625 C24.59144287 -0.10289307 25.84304199 -0.10812988 27.13256836 -0.11352539 C30 0 30 0 31 1 C31.07179964 2.51928038 31.08392007 4.04167482 31.0625 5.5625 C31.05347656 6.38878906 31.04445312 7.21507812 31.03515625 8.06640625 C31.02355469 8.70449219 31.01195312 9.34257812 31 10 C30.34 10 29.68 10 29 10 C26.95830515 7.09451118 26 5.59857954 26 2 C21.71 2 17.42 2 13 2 C13 7.94 13 13.88 13 20 C15.97 20 18.94 20 22 20 C22.33 18.68 22.66 17.36 23 16 C23.66 16 24.32 16 25 16 C25 19.3 25 22.6 25 26 C24.34 26 23.68 26 23 26 C22.34 25.01 21.68 24.02 21 23 C19.03638136 22.42251197 19.03638136 22.42251197 16.875 22.3125 C15.59625 22.209375 14.3175 22.10625 13 22 C12.67 22.66 12.34 23.32 12 24 C12 16.41 12 8.82 12 1 C6.06 1.495 6.06 1.495 0 2 C0 1.34 0 0.68 0 0 Z " fill="#949A82" transform="translate(169,178)"/>
<path d="M0 0 C2 1 2 1 3.1171875 3.16796875 C4.11525612 6.36973755 4.19853617 8.96660419 4.125 12.3125 C4.10695312 13.38113281 4.08890625 14.44976562 4.0703125 15.55078125 C4.04710937 16.35902344 4.02390625 17.16726562 4 18 C3.01 18.33 2.02 18.66 1 19 C0.01 18.34 -0.98 17.68 -2 17 C-0.35 17 1.3 17 3 17 C2.505 11.06 2.505 11.06 2 5 C-10.06822547 5.30170564 -21.16678412 8.3471863 -32.77612305 11.46508789 C-35 12 -35 12 -37 12 C-37.33 12.99 -37.66 13.98 -38 15 C-38.66 15 -39.32 15 -40 15 C-39.67 13.35 -39.34 11.7 -39 10 C-31.3978253 7.73500976 -23.78056579 5.64012709 -16.0625 3.8125 C-15.36584229 3.64588867 -14.66918457 3.47927734 -13.95141602 3.30761719 C-10.65771778 2.54023001 -7.40963688 1.91750129 -4.05859375 1.44921875 C-1.13112525 1.33007534 -1.13112525 1.33007534 0 0 Z " fill="#EBE7D7" transform="translate(219,120)"/>
<path d="M0 0 C5.28 0 10.56 0 16 0 C15.67 13.2 15.34 26.4 15 40 C18.63 40 22.26 40 26 40 C26 40.66 26 41.32 26 42 C24.02090602 42.02686553 22.04171029 42.04633375 20.0625 42.0625 C18.96035156 42.07410156 17.85820312 42.08570313 16.72265625 42.09765625 C14 42 14 42 13 41 C12.89896745 38.20006403 12.86029912 35.42531356 12.8671875 32.625 C12.86623077 31.78533691 12.86527405 30.94567383 12.86428833 30.08056641 C12.86360652 28.30175705 12.86546083 26.52294523 12.86962891 24.74414062 C12.87497717 22.01166224 12.86968395 19.27934824 12.86328125 16.546875 C12.86394203 14.8229163 12.86522319 13.09895771 12.8671875 11.375 C12.86516327 10.55209473 12.86313904 9.72918945 12.86105347 8.88134766 C12.88504946 3.11495054 12.88504946 3.11495054 14 2 C9.38 2 4.76 2 0 2 C0 1.34 0 0.68 0 0 Z " fill="#D8D9C7" transform="translate(134,178)"/>
<path d="M0 0 C2.97 0 5.94 0 9 0 C9 0.66 9 1.32 9 2 C8.01 2.495 8.01 2.495 7 3 C6.67 16.53 6.34 30.06 6 44 C4.35 44 2.7 44 1 44 C1 43.01 1 42.02 1 41 C2.32 41.66 3.64 42.32 5 43 C5 38.38 5 33.76 5 29 C4.01 28.67 3.02 28.34 2 28 C2.66 27.67 3.32 27.34 4 27 C3.9192124 23.39490895 3.80636316 19.79152079 3.6875 16.1875 C3.66494141 15.16333984 3.64238281 14.13917969 3.61914062 13.08398438 C3.58369141 12.10107422 3.54824219 11.11816406 3.51171875 10.10546875 C3.48553467 9.19949951 3.45935059 8.29353027 3.43237305 7.36010742 C2.92483536 4.58971397 2.05644607 3.82935807 0 2 C0 1.34 0 0.68 0 0 Z " fill="#979C85" transform="translate(281,178)"/>
<path d="M0 0 C2.64 0 5.28 0 8 0 C8 0.99 8 1.98 8 3 C7.01 3 6.02 3 5 3 C5 16.2 5 29.4 5 43 C3.68 42.67 2.36 42.34 1 42 C1.99 42 2.98 42 4 42 C4 38.04 4 34.08 4 30 C3.01 29.67 2.02 29.34 1 29 C1.33 28.34 1.66 27.68 2 27 C2.2412158 23.40122243 2.18519881 19.79346212 2.1875 16.1875 C2.19974609 15.18912109 2.21199219 14.19074219 2.22460938 13.16210938 C2.22654297 12.19466797 2.22847656 11.22722656 2.23046875 10.23046875 C2.23457764 9.34770264 2.23868652 8.46493652 2.24291992 7.55541992 C1.97437804 4.73046733 1.16717379 2.57344906 0 0 Z " fill="#8B9179" transform="translate(381,178)"/>
<path d="M0 0 C0.33 1.32 0.66 2.64 1 4 C1.99 4.33 2.98 4.66 4 5 C3.67 5.66 3.34 6.32 3 7 C2.84558791 9.10374996 2.75007361 11.21195119 2.68359375 13.3203125 C2.64169922 14.57714844 2.59980469 15.83398438 2.55664062 17.12890625 C2.51732422 18.44761719 2.47800781 19.76632813 2.4375 21.125 C2.39430488 22.46485751 2.35069027 23.80470156 2.30664062 25.14453125 C2.20029019 28.42957815 2.09826192 31.71470281 2 35 C3.32 35.33 4.64 35.66 6 36 C6 36.66 6 37.32 6 38 C2.7 38 -0.6 38 -4 38 C-3.67 37.01 -3.34 36.02 -3 35 C-2.01 35 -1.02 35 0 35 C0 23.45 0 11.9 0 0 Z " fill="#979C86" transform="translate(257,184)"/>
<path d="M0 0 C0.66 0.33 1.32 0.66 2 1 C-8.52704432 13.55286728 -8.52704432 13.55286728 -13 15 C-15.33294775 15.04241723 -17.66702567 15.04092937 -20 15 C-21.67557379 15.28520405 -23.34817245 15.59955696 -25 16 C-23.4994106 12.99882121 -21.16117597 12.40096568 -18.1875 10.9375 C-17.12917969 10.41027344 -16.07085937 9.88304687 -14.98046875 9.33984375 C-12.58958139 8.26504117 -10.51211233 7.62661678 -8 7 C-6.62437146 5.71034824 -5.29233607 4.37310707 -4 3 C-2.68441297 1.97676564 -1.35622245 0.96873032 0 0 Z " fill="#706F6F" transform="translate(422,379)"/>
<path d="M0 0 C0.33 0 0.66 0 1 0 C1.02687279 1.81242052 1.04633715 3.62495233 1.0625 5.4375 C1.07410156 6.44683594 1.08570313 7.45617187 1.09765625 8.49609375 C1 11 1 11 0 12 C-2.29151417 12.08790975 -4.58572524 12.10694038 -6.87890625 12.09765625 C-7.90889992 12.09553383 -7.90889992 12.09553383 -8.95970154 12.09336853 C-11.16067801 12.08775479 -13.36155409 12.07520007 -15.5625 12.0625 C-17.05143083 12.05748676 -18.54036324 12.05292355 -20.02929688 12.04882812 C-23.68623075 12.03778093 -27.34310558 12.02050713 -31 12 C-30.67 11.34 -30.34 10.68 -30 10 C-26.04 10.33 -22.08 10.66 -18 11 C-17.67 10.34 -17.34 9.68 -17 9 C-13.04 9.33 -9.08 9.66 -5 10 C-4.34 8.35 -3.68 6.7 -3 5 C-1.4375 2.1875 -1.4375 2.1875 0 0 Z " fill="#959B83" transform="translate(165,210)"/>
<path d="M0 0 C0.99 0 1.98 0 3 0 C3.33 0.66 3.66 1.32 4 2 C6.52733235 2.65555119 6.52733235 2.65555119 9 3 C9 3.99 9 4.98 9 6 C10.32 6 11.64 6 13 6 C13 6.99 13 7.98 13 9 C13.66 9 14.32 9 15 9 C15 9.66 15 10.32 15 11 C12.23547967 12.38226016 9.9538637 12.09525387 6.875 12.0625 C5.77929688 12.05347656 4.68359375 12.04445312 3.5546875 12.03515625 C2.29011719 12.01775391 2.29011719 12.01775391 1 12 C1.99 11.34 2.98 10.68 4 10 C3.34 9.67 2.68 9.34 2 9 C2.33 8.01 2.66 7.02 3 6 C2.67 5.67 2.34 5.34 2 5 C2 4.01 2 3.02 2 2 C1.34 2 0.68 2 0 2 C0 1.34 0 0.68 0 0 Z " fill="#6E7353" transform="translate(323,210)"/>
<path d="M0 0 C2.55948999 2.55948999 2.26068731 4.27207195 2.2734375 7.765625 C2.26570312 8.50296875 2.25796875 9.2403125 2.25 10 C2.25773438 10.73734375 2.26546875 11.4746875 2.2734375 12.234375 C2.2533196 17.7466804 2.2533196 17.7466804 0 20 C0 16.7 0 13.4 0 10 C-1.423125 9.4121875 -1.423125 9.4121875 -2.875 8.8125 C-6.34127338 6.80206144 -6.9802693 5.77300358 -8 2 C-4.77626323 -0.14915785 -3.73296326 -0.38286803 0 0 Z " fill="#C8C7A4" transform="translate(228,119)"/>
<path d="M0 0 C0.185625 0.9590625 0.185625 0.9590625 0.375 1.9375 C0.684375 2.9584375 0.684375 2.9584375 1 4 C1.66 4.33 2.32 4.66 3 5 C2.99214478 6.34747314 2.99214478 6.34747314 2.98413086 7.72216797 C2.96710275 11.05062499 2.95455663 14.37903581 2.94506836 17.70751953 C2.94003526 19.1489332 2.93320827 20.59034176 2.92456055 22.03173828 C2.91245017 24.10190085 2.90676153 26.17199601 2.90234375 28.2421875 C2.89710693 29.4885498 2.89187012 30.73491211 2.88647461 32.01904297 C2.79183413 34.92771106 2.79183413 34.92771106 4 37 C2.02 37 0.04 37 -2 37 C-1.67 36.34 -1.34 35.68 -1 35 C-0.84339117 32.37619687 -0.7417092 29.77475148 -0.68359375 27.1484375 C-0.6524221 25.98738998 -0.6524221 25.98738998 -0.62062073 24.80288696 C-0.55516552 22.32701608 -0.49625913 19.85103798 -0.4375 17.375 C-0.39431093 15.69790552 -0.35069652 14.02082193 -0.30664062 12.34375 C-0.19948829 8.22927692 -0.09820955 4.11469586 0 0 Z " fill="#8E927C" transform="translate(356,184)"/>
<path d="M0 0 C0.99 0.33 1.98 0.66 3 1 C1.79157144 5.43090471 0.48331435 7.98112756 -3 11 C-2.67 9.68 -2.34 8.36 -2 7 C-4.31 7.33 -6.62 7.66 -9 8 C-12 4.25 -12 4.25 -12 2 C-10.68 1.67 -9.36 1.34 -8 1 C-8 1.66 -8 2.32 -8 3 C-4.28263359 3.34900558 -4.28263359 3.34900558 -1.1875 1.5 C-0.795625 1.005 -0.40375 0.51 0 0 Z " fill="#AAAB81" transform="translate(344,205)"/>
<path d="M0 0 C4.29 0 8.58 0 13 0 C12.34 0.66 11.68 1.32 11 2 C8.36 1.67 5.72 1.34 3 1 C3 14.2 3 27.4 3 41 C5.64 41 8.28 41 11 41 C11.33 40.34 11.66 39.68 12 39 C12 39.99 12 40.98 12 42 C7.71 42 3.42 42 -1 42 C-0.34 41.01 0.32 40.02 1 39 C1.24097687 36.17562556 1.3729132 33.44122826 1.4140625 30.61328125 C1.43342865 29.79627243 1.4527948 28.97926361 1.4727478 28.13749695 C1.53250352 25.52927066 1.57891258 22.92100014 1.625 20.3125 C1.6631835 18.5436006 1.70223546 16.77471972 1.7421875 15.00585938 C1.83820168 10.67072341 1.92224735 6.3355004 2 2 C1.34 2 0.68 2 0 2 C0 1.34 0 0.68 0 0 Z " fill="#5F6A4A" transform="translate(48,179)"/>
<path d="M0 0 C-3.35981024 2.7886425 -7.02047629 4.53497514 -11 6.25 C-11.61617188 6.53101563 -12.23234375 6.81203125 -12.8671875 7.1015625 C-15.56425353 8.27067696 -17.48420385 9.0694341 -20.4375 8.671875 C-20.953125 8.45015625 -21.46875 8.2284375 -22 8 C-21.34 7.34 -20.68 6.68 -20 6 C-19.67 5.34 -19.34 4.68 -19 4 C-15.9375 3.375 -15.9375 3.375 -13 3 C-13 2.34 -13 1.68 -13 1 C-4.57142857 -1.42857143 -4.57142857 -1.42857143 0 0 Z " fill="#686868" transform="translate(407,394)"/>
<path d="M0 0 C0.66 0.33 1.32 0.66 2 1 C3.32 0.67 4.64 0.34 6 0 C4.68 4.29 3.36 8.58 2 13 C0.35 13 -1.3 13 -3 13 C-3.38281159 7.76824163 -2.21854707 4.62197306 0 0 Z " fill="#C7C5A3" transform="translate(210,207)"/>
<path d="M0 0 C2.64 0 5.28 0 8 0 C8.12375 0.969375 8.2475 1.93875 8.375 2.9375 C8.58125 3.948125 8.7875 4.95875 9 6 C9.66 6.33 10.32 6.66 11 7 C11 7.66 11 8.32 11 9 C9.68 9.33 8.36 9.66 7 10 C7 9.01 7 8.02 7 7 C6.21625 6.896875 5.4325 6.79375 4.625 6.6875 C2 6 2 6 0 3 C0 2.01 0 1.02 0 0 Z " fill="#767C58" transform="translate(313,206)"/>
<path d="M0 0 C3.14737182 0.69941596 6.02588876 1.76078698 9 3 C9 4.32 9 5.64 9 7 C6.36 7.33 3.72 7.66 1 8 C0.26919734 6.02253397 -0.39421747 4.01927511 -1 2 C-0.67 1.34 -0.34 0.68 0 0 Z " fill="#B1B5A1" transform="translate(238,231)"/>
<path d="M0 0 C0.33 0.66 0.66 1.32 1 2 C3.01669827 3.13350534 3.01669827 3.13350534 5 4 C3.35 4.33 1.7 4.66 0 5 C0.33 5.66 0.66 6.32 1 7 C0.01 7 -0.98 7 -2 7 C-2 6.01 -2 5.02 -2 4 C-3.98 4 -5.96 4 -8 4 C-8.33 4.99 -8.66 5.98 -9 7 C-9.66 5.35 -10.32 3.7 -11 2 C-7.17679443 0.57741188 -4.08718695 -0.24042276 0 0 Z " fill="#A9AA81" transform="translate(330,202)"/>
<path d="M0 0 C0.99 0.33 1.98 0.66 3 1 C3 1.99 3 2.98 3 4 C2.34 4 1.68 4 1 4 C1.66 6.64 2.32 9.28 3 12 C2.34 12 1.68 12 1 12 C0.67 11.34 0.34 10.68 0 10 C0 10.99 0 11.98 0 13 C-0.99 13 -1.98 13 -3 13 C-3.31563182 7.73946963 -2.66590937 4.55426184 0 0 Z " fill="#8E916C" transform="translate(311,185)"/>
<path d="M0 0 C-0.66 1.98 -1.32 3.96 -2 6 C-4.31 5.34 -6.62 4.68 -9 4 C-9 2.68 -9 1.36 -9 0 C-5.67465243 -1.10844919 -3.37817425 -0.84454356 0 0 Z " fill="#989D87" transform="translate(215,233)"/>
<path d="M0 0 C0.66 0 1.32 0 2 0 C2 3.3 2 6.6 2 10 C1.34 10 0.68 10 0 10 C-0.66 9.01 -1.32 8.02 -2 7 C-3.96361864 6.42251197 -3.96361864 6.42251197 -6.125 6.3125 C-7.40375 6.209375 -8.6825 6.10625 -10 6 C-10 5.34 -10 4.68 -10 4 C-7.03 4 -4.06 4 -1 4 C-0.67 2.68 -0.34 1.36 0 0 Z " fill="#8D937C" transform="translate(192,194)"/>
<path d="M0 0 C2.86957408 3.37596951 4.25509829 6.84944936 5.75 11 C6.42289062 12.8253125 6.42289062 12.8253125 7.109375 14.6875 C7.94239934 17.78576596 8.19047957 19.09639129 7 22 C4.84694043 18.14243493 3.60746746 15.44870215 4 11 C3.34 11 2.68 11 2 11 C0.80712589 7.12315913 0 4.08378077 0 0 Z " fill="#525150" transform="translate(456,66)"/>
<path d="M0 0 C2.475 0.99 2.475 0.99 5 2 C5.33 1.34 5.66 0.68 6 0 C6.66 0.66 7.32 1.32 8 2 C11.693507 2.20146402 14.47940432 2.17353189 18 1 C18.33 1.99 18.66 2.98 19 4 C15.06006733 5.96996633 10.2938488 5.45897681 6 5 C3.46355683 3.94114327 2.08197442 2.8568961 0 1 C0 0.67 0 0.34 0 0 Z " fill="#9B9F8A" transform="translate(99,218)"/>
<path d="M0 0 C1.98 0 3.96 0 6 0 C6.66 1.65 7.32 3.3 8 5 C7.01 5 6.02 5 5 5 C5 4.01 5 3.02 5 2 C4.34 2 3.68 2 3 2 C3 2.66 3 3.32 3 4 C2.34 4 1.68 4 1 4 C1 4.66 1 5.32 1 6 C1.66 6 2.32 6 3 6 C3 6.99 3 7.98 3 9 C3.66 9 4.32 9 5 9 C4.67 9.99 4.34 10.98 4 12 C4 11.34 4 10.68 4 10 C2.68 10.33 1.36 10.66 0 11 C0 10.01 0 9.02 0 8 C0.66 8.33 1.32 8.66 2 9 C2 8.34 2 7.68 2 7 C1.01 6.67 0.02 6.34 -1 6 C-0.67 4.02 -0.34 2.04 0 0 Z " fill="#888D67" transform="translate(322,206)"/>
<path d="M0 0 C-1.98 0.33 -3.96 0.66 -6 1 C-6 2.32 -6 3.64 -6 5 C-7.65 5.33 -9.3 5.66 -11 6 C-11 5.34 -11 4.68 -11 4 C-11.495 4.165 -11.99 4.33 -12.5 4.5 C-16.03444089 5.20688818 -19.39690701 5.06005155 -23 5 C-23 4.67 -23 4.34 -23 4 C-21.87980469 3.72285156 -20.75960938 3.44570313 -19.60546875 3.16015625 C-18.13279698 2.79433333 -16.66014158 2.42844447 -15.1875 2.0625 C-14.08051758 1.78889648 -14.08051758 1.78889648 -12.95117188 1.50976562 C-3.06390381 -0.9508667 -3.06390381 -0.9508667 0 0 Z " fill="#A2A09E" transform="translate(394,397)"/>
<path d="M0 0 C1.2375 0.495 1.2375 0.495 2.5 1 C1.51 1.33 0.52 1.66 -0.5 2 C-0.83 2.66 -1.16 3.32 -1.5 4 C-1.83 3.67 -2.16 3.34 -2.5 3 C-4.68019479 2.60333773 -6.8696463 2.25684763 -9.0625 1.9375 C-10.85880859 1.67259766 -10.85880859 1.67259766 -12.69140625 1.40234375 C-13.61824219 1.26957031 -14.54507813 1.13679687 -15.5 1 C-10.33738498 -1.89106441 -5.53597547 -1.58170728 0 0 Z " fill="#A1A58F" transform="translate(118.5,178)"/>
<path d="M0 0 C0.99 0 1.98 0 3 0 C3.33 1.98 3.66 3.96 4 6 C3.195625 5.855625 2.39125 5.71125 1.5625 5.5625 C-2.61359481 4.90311661 -6.79598059 4.43908647 -11 4 C-10.67 3.01 -10.34 2.02 -10 1 C-9.67 1.66 -9.34 2.32 -9 3 C-8.34 3 -7.68 3 -7 3 C-7 2.34 -7 1.68 -7 1 C-6.34 1 -5.68 1 -5 1 C-5 1.66 -5 2.32 -5 3 C-3.35 3 -1.7 3 0 3 C0 2.01 0 1.02 0 0 Z " fill="#E1DEC5" transform="translate(209,146)"/>
<path d="M0 0 C3.96 0 7.92 0 12 0 C12 0.99 12 1.98 12 3 C7.71 3 3.42 3 -1 3 C-0.67 2.01 -0.34 1.02 0 0 Z " fill="#E7E3D9" transform="translate(220,233)"/>
<path d="M0 0 C0.99 0.33 1.98 0.66 3 1 C3.6875 3.0625 3.6875 3.0625 4 5 C2.35 5.66 0.7 6.32 -1 7 C-1 7.33 -1 7.66 -1 8 C-3.31 8 -5.62 8 -8 8 C-6.68 7.67 -5.36 7.34 -4 7 C-4 6.01 -4 5.02 -4 4 C-3.34 4 -2.68 4 -2 4 C-2.33 3.01 -2.66 2.02 -3 1 C-2.34 1 -1.68 1 -1 1 C-0.67 0.67 -0.34 0.34 0 0 Z " fill="#9A9C73" transform="translate(321,198)"/>
<path d="M0 0 C1.4909668 1.13500977 1.4909668 1.13500977 3 3 C3.28051758 5.66381836 3.28051758 5.66381836 3.14453125 8.83984375 C3.09876953 9.98517578 3.05300781 11.13050781 3.00585938 12.31054688 C2.94205078 13.50744141 2.87824219 14.70433594 2.8125 15.9375 C2.76802734 17.13052734 2.72355469 18.32355469 2.67773438 19.55273438 C2.23668641 29.23945457 2.23668641 29.23945457 0 33 C-0.33 32.34 -0.66 31.68 -1 31 C-0.505 29.515 -0.505 29.515 0 28 C0.0833804 25.86205475 0.10733747 23.72157991 0.09765625 21.58203125 C0.09443359 20.32841797 0.09121094 19.07480469 0.08789062 17.78320312 C0.07951172 16.47287109 0.07113281 15.16253906 0.0625 13.8125 C0.05748317 12.47721519 0.05292059 11.14192859 0.04882812 9.80664062 C0.03702695 6.53771527 0.02056297 3.26888009 0 0 Z " fill="#A2A990" transform="translate(119,184)"/>
<path d="M0 0 C-3.7559214 3.42931954 -8.23466745 4.56429083 -13 6 C-12.375 3.625 -12.375 3.625 -11 1 C-6.99266635 -0.9591409 -4.26641867 -1.25482902 0 0 Z " fill="#565656" transform="translate(407,394)"/>
<path d="M0 0 C0.78375 0.04125 1.5675 0.0825 2.375 0.125 C2.045 1.115 1.715 2.105 1.375 3.125 C1.045 2.465 0.715 1.805 0.375 1.125 C-0.285 1.125 -0.945 1.125 -1.625 1.125 C-1.83125 1.681875 -2.0375 2.23875 -2.25 2.8125 C-4.17500774 6.05001302 -6.66350902 7.80731141 -9.625 10.125 C-9.625 7.125 -9.625 7.125 -7.25 4.5625 C-6.38375 3.758125 -5.5175 2.95375 -4.625 2.125 C-2.625 0.125 -2.625 0.125 0 0 Z " fill="#767F63" transform="translate(103.625,178.875)"/>
<path d="M0 0 C0.33 0 0.66 0 1 0 C1 3.3 1 6.6 1 10 C-0.98 10 -2.96 10 -5 10 C-3.35 6.7 -1.7 3.4 0 0 Z " fill="#80876D" transform="translate(425,211)"/>
<path d="M0 0 C0.66 0 1.32 0 2 0 C2 3.63 2 7.26 2 11 C1.34 11 0.68 11 0 11 C-1.77084117 8.29165469 -2.01052504 7.10735541 -1.6875 3.8125 C-1 1 -1 1 0 0 Z " fill="#828A71" transform="translate(417,194)"/>
<path d="M0 0 C0.66 0 1.32 0 2 0 C2 2.97 2 5.94 2 9 C0.02 9 -1.96 9 -4 9 C-3.2884375 7.88625 -3.2884375 7.88625 -2.5625 6.75 C-1.22130673 4.38949985 -0.487688 2.63351523 0 0 Z " fill="#798267" transform="translate(199,212)"/>
<path d="M0 0 C-0.33 2.31 -0.66 4.62 -1 7 C0.32 7.33 1.64 7.66 3 8 C1.35 8 -0.3 8 -2 8 C-2 7.34 -2 6.68 -2 6 C-2.66 6 -3.32 6 -4 6 C-4 6.66 -4 7.32 -4 8 C-4.66 8 -5.32 8 -6 8 C-5.62403791 5.21788056 -5.32681541 3.4120716 -3.5625 1.1875 C-2 0 -2 0 0 0 Z " fill="#C8C7A5" transform="translate(206,141)"/>
<path d="M0 0 C0 3 0 3 -1.6796875 5.04296875 C-2.76636719 6.10451172 -2.76636719 6.10451172 -3.875 7.1875 C-4.95394531 8.26064453 -4.95394531 8.26064453 -6.0546875 9.35546875 C-8 11 -8 11 -10 11 C-8.55218207 7.55571735 -6.72305391 5.63869038 -3.875 3.25 C-3.15054688 2.63640625 -2.42609375 2.0228125 -1.6796875 1.390625 C-0.84824219 0.70226562 -0.84824219 0.70226562 0 0 Z " fill="#A39F9B" transform="translate(38,30)"/>
<path d="M0 0 C-0.66 1.65 -1.32 3.3 -2 5 C-5.3 5.33 -8.6 5.66 -12 6 C-10.66144904 3.32289809 -9.27941912 3.04870906 -6.5625 1.875 C-5.75941406 1.52179688 -4.95632813 1.16859375 -4.12890625 0.8046875 C-2 0 -2 0 0 0 Z " fill="#979694" transform="translate(409,389)"/>
<path d="M0 0 C3.63 0 7.26 0 11 0 C11.66 1.32 12.32 2.64 13 4 C12.34 3.67 11.68 3.34 11 3 C9.29297265 2.93003986 7.58331997 2.91559846 5.875 2.9375 C4.96492188 2.94652344 4.05484375 2.95554688 3.1171875 2.96484375 C2.06917969 2.98224609 2.06917969 2.98224609 1 3 C0.67 2.01 0.34 1.02 0 0 Z " fill="#8C9179" transform="translate(352,178)"/>
<path d="M0 0 C2.9375 0.8125 2.9375 0.8125 6 2 C6.33 2.99 6.66 3.98 7 5 C6.34 5 5.68 5 5 5 C4.67 5.33 4.34 5.66 4 6 C3.34 6 2.68 6 2 6 C2 6.99 2 7.98 2 9 C1.34 9 0.68 9 0 9 C0 6.03 0 3.06 0 0 Z " fill="#A9AA80" transform="translate(315,196)"/>
<path d="M0 0 C0.33 0 0.66 0 1 0 C1 1.98 1 3.96 1 6 C2.32 6.33 3.64 6.66 5 7 C3.68 7 2.36 7 1 7 C1 8.98 1 10.96 1 13 C0.34 12.67 -0.32 12.34 -1 12 C-1.02712066 10.56260487 -1.04645067 9.12506137 -1.0625 7.6875 C-1.07410156 6.88699219 -1.08570313 6.08648437 -1.09765625 5.26171875 C-1 3 -1 3 0 0 Z " fill="#989B83" transform="translate(307,192)"/>
<path d="M0 0 C0.33 0.66 0.66 1.32 1 2 C1.66 2 2.32 2 3 2 C3 2.99 3 3.98 3 5 C2.34 5 1.68 5 1 5 C1 7.31 1 9.62 1 12 C0.34 12 -0.32 12 -1 12 C-1.33 10.02 -1.66 8.04 -2 6 C-1.34 6 -0.68 6 0 6 C-0.2784375 4.7934375 -0.2784375 4.7934375 -0.5625 3.5625 C-0.706875 2.716875 -0.85125 1.87125 -1 1 C-0.67 0.67 -0.34 0.34 0 0 Z " fill="#AEAD84" transform="translate(314,183)"/>
<path d="M0 0 C2.97 0.495 2.97 0.495 6 1 C6 1.99 6 2.98 6 4 C3.69 4 1.38 4 -1 4 C-0.67 2.68 -0.34 1.36 0 0 Z " fill="#BCBDAB" transform="translate(200,233)"/>
<path d="M0 0 C0.99 0 1.98 0 3 0 C3 2.64 3 5.28 3 8 C2.01 7.67 1.02 7.34 0 7 C-1.125 2.25 -1.125 2.25 0 0 Z " fill="#959984" transform="translate(238,231)"/>
<path d="M0 0 C0.99 0 1.98 0 3 0 C3 0.99 3 1.98 3 3 C3.99 3 4.98 3 6 3 C6 3.99 6 4.98 6 6 C4.68 6.33 3.36 6.66 2 7 C2 6.01 2 5.02 2 4 C1.34 4 0.68 4 0 4 C0 2.68 0 1.36 0 0 Z " fill="#737854" transform="translate(309,199)"/>
<path d="M0 0 C2.31 0 4.62 0 7 0 C7.33 0.99 7.66 1.98 8 3 C5.36 3 2.72 3 0 3 C0 2.01 0 1.02 0 0 Z " fill="#B2B5A2" transform="translate(249,234)"/>
<path d="M0 0 C0.99 0.33 1.98 0.66 3 1 C2.67 1.99 2.34 2.98 2 4 C2.66 4 3.32 4 4 4 C3.67 5.65 3.34 7.3 3 9 C2.67 8.34 2.34 7.68 2 7 C1.34 7 0.68 7 0 7 C-0.93423645 3.98968256 -1.04449911 3.13349732 0 0 Z " fill="#ABAB86" transform="translate(348,202)"/>
<path d="M0 0 C0.33 0 0.66 0 1 0 C1 2.97 1 5.94 1 9 C0.34 9 -0.32 9 -1 9 C-2.6875 6.625 -2.6875 6.625 -4 4 C-3.67 3.34 -3.34 2.68 -3 2 C-1.515 2.99 -1.515 2.99 0 4 C0 2.68 0 1.36 0 0 Z " fill="#9CA28A" transform="translate(199,179)"/>
<path d="M0 0 C0.66 0 1.32 0 2 0 C2 0.99 2 1.98 2 3 C4.97 3.495 4.97 3.495 8 4 C8 4.66 8 5.32 8 6 C6.68 6.33 5.36 6.66 4 7 C4 6.01 4 5.02 4 4 C2.35 3.67 0.7 3.34 -1 3 C-0.67 2.01 -0.34 1.02 0 0 Z " fill="#6E7652" transform="translate(316,209)"/>
<path d="M0 0 C0.66 0.33 1.32 0.66 2 1 C1.04270084 2.12588014 0.08412105 3.2506715 -0.875 4.375 C-1.40867187 5.00148438 -1.94234375 5.62796875 -2.4921875 6.2734375 C-3.61432007 7.55836651 -4.79371975 8.79371975 -6 10 C-5.72510809 5.96825194 -5.46508424 4.43105369 -2.4375 1.625 C-1.633125 1.08875 -0.82875 0.5525 0 0 Z " fill="#8B8A8A" transform="translate(422,379)"/>
<path d="M0 0 C0.33 0 0.66 0 1 0 C1 3.63 1 7.26 1 11 C-0.98 11 -2.96 11 -5 11 C-4.360625 10.67 -3.72125 10.34 -3.0625 10 C0.0552764 6.97670168 -0.27956936 4.26343276 0 0 Z " fill="#AAAC87" transform="translate(238,210)"/>
<path d="M0 0 C0 0.99 0 1.98 0 3 C-2.97 3 -5.94 3 -9 3 C-6.40821726 0.40821726 -3.54324677 -1.77162338 0 0 Z " fill="#E1DDC8" transform="translate(221,121)"/>
<path d="M0 0 C1.32 0 2.64 0 4 0 C3.67 1.98 3.34 3.96 3 6 C2.34 6 1.68 6 1 6 C0.67 4.02 0.34 2.04 0 0 Z " fill="#7C825D" transform="translate(328,213)"/>
<path d="M0 0 C0.99 0.66 1.98 1.32 3 2 C1.35 3.98 -0.3 5.96 -2 8 C-2.33 7.01 -2.66 6.02 -3 5 C-1.5625 2.3125 -1.5625 2.3125 0 0 Z " fill="#B0AF90" transform="translate(347,210)"/>
</svg>
